<?xml version="1.0"?>
<svg version="1.1" xmlns="http://www.w3.org/2000/svg" width="270" height="55" style=""><path fill="#" d="M16.008,46.688q0-3.888,2.304-7.704q-2.664-1.692-2.664-5.004q0-3.996,3.528-7.092q3.96-3.492,10.224-3.492q2.88,0,6.192,0.828q0.756,0.18,6.444,2.79t8.172,2.61q1.656,0,2.484-0.936q0.432-0.468,0.432-1.008t-0.468-0.972q-0.252-0.36-0.252-0.468t0.198-0.108t0.684,0.63t0.486,1.476t-1.134,1.62t-2.862,0.774q-2.7,0-8.388-2.61t-7.146-2.898t-3.33-0.288q-7.452,0-11.736,4.824q-0.504,0.54-1.188,2.178t-0.684,3.15q0,2.088,1.476,3.24q1.872-2.736,4.428-4.356t5.184-1.62q3.24,0,3.24,2.52q0,3.024-3.546,6.57t-6.57,3.546q-1.944,0-1.944-1.656q0-0.576,0.306-1.008t0.738-0.324l-0.072,0.828q0,0.54,1.656,0.54q2.448,0,5.166-2.52t3.294-4.932q0.144-0.54,0.144-0.972q0-1.62-2.07-1.62t-4.284,1.584t-4.158,4.176q0.144,0.072,1.116,0.288l2.16,0.072q1.584,0.072,1.584,0.36q0,0.504-1.512,0.504l-0.216,0q-2.196,0-3.6-0.54q-2.772,4.248-2.772,7.812q0,4.608,3.564,4.608q4.032,0,8.388-5.616l7.056-10.512q3.96-5.76,6.876-5.904l1.368,0.324q0.648,0.36,0.648,1.08t-0.36,0.72l-1.152-0.18q-2.484,0-6.372,5.364l-7.164,10.008q-4.608,5.364-8.82,5.364q-2.88,0-3.978-1.548t-1.098-4.5z M69.61812,36.284q0,4.5-4.608,8.604q-7.092,6.336-15.876,6.336q-0.972,0-1.512-0.036q-2.88-0.144-4.626-1.89t-1.746-4.518t1.476-6.048q1.872-4.14,7.308-8.064q6.264-4.464,12.96-4.464q3.6,0,5.472,1.404t1.872,3.492q0,1.296-1.008,3.204q0.288,0.972,0.288,1.98z M68.86212,33.224q0.36-0.864,0.36-1.926t-0.792-2.178q-1.548-2.16-5.472-2.16q-5.436,0-10.26,3.366t-7.524,8.478q-1.98,3.708-1.98,6.66q0,4.752,4.788,5.004q0.504,0.036,1.008,0.036q7.092,0,13.5-5.724q4.608-4.104,4.968-7.812q-1.872,2.052-6.48,4.896l-0.288,0.072q-0.036,0-0.036-0.036q0-0.144,0.972-0.972l2.016-1.656q2.592-2.268,3.78-3.708q-0.252-2.016-1.818-3.366t-3.582-1.962q-1.008-0.252-3.114-0.324t-2.106-0.144t0.072-0.144q1.656-0.54,3.186-0.54t3.51,0.468q3.78,0.9,5.292,3.672z M100.15224,24.008q0.756,0,0.756,0.54q0,2.196-6.048,12.564q0.252,0.972,0.792,2.268l10.728-8.172q6.156-4.68,8.316-6.012q4.824-2.88,9.468-2.88q1.332,0,2.448,0.432q0.684,0.252,0.684,0.936t-0.36,0.684q-0.216,0-0.45-0.288t-1.368-0.288t-3.69,0.576q-4.032,0.9-9.144,4.032q-3.204,1.98-8.568,6.084t-7.74,5.652q1.836,3.852,4.716,7.164q4.428,5.148,7.956,5.148q1.728,0,1.728-1.332q0-0.252-0.054-0.504t0.126-0.612t0.432-0.36q0.468,0,0.612,1.116q0.036,0.18,0.036,0.36q0,1.152-1.17,1.89t-2.772,0.738t-2.682-0.504q-2.844-1.404-5.742-4.932t-4.446-7.416q-1.98,1.152-3.276,1.26q-2.412,3.132-5.94,6.084q-1.908,1.62-4.14,2.61t-4.284,0.99q-2.916,0-4.5-1.458t-1.584-4.446q0-1.476,0.576-2.736q1.836-4.068,5.544-5.616q2.052-0.9,4.086-0.9t2.718,1.332q0.252,0.468,0.252,0.99t-0.144,0.666t-0.396-0.252q-0.864-1.584-1.836-1.764q-0.648-0.072-0.936-0.072q-2.808,0-5.256,2.34q-3.168,3.06-3.168,6.624q0,3.888,4.392,4.392l0.288,0q1.584,0,4.068-1.404q4.032-2.304,8.604-7.92q-0.828-0.756-0.828-2.232t1.098-2.79t3.006-1.314q0.54,0,1.008,0.108q1.8-3.024,3.492-6.534t1.692-4.05q0-0.072-0.216-0.072t-2.502,1.134t-3.258,1.782t-2.376,2.034t-1.404,2.25q0,0.396,0.558,0.792t2.034,0.396q0.18,0.072,0.18,0.198t-0.99,0.288t-1.566,0.162q-1.296,0-1.296-1.08q0-1.26,1.548-3.024t3.384-2.772q5.364-2.88,6.804-2.88z M94.42824,40.136q-0.288-0.72-0.468-1.44q-0.72,1.044-1.44,2.052q0.36,0,0.648-0.054t1.26-0.558z M93.06024,37.04q-0.432-0.18-0.954-0.18t-1.044,0.648t-0.522,1.386t0.396,1.242q1.764-2.52,2.124-3.096z M134.71836,36.284q0,4.5-4.608,8.604q-7.092,6.336-15.876,6.336q-0.972,0-1.512-0.036q-2.88-0.144-4.626-1.89t-1.746-4.518t1.476-6.048q1.872-4.14,7.308-8.064q6.264-4.464,12.96-4.464q3.6,0,5.472,1.404t1.872,3.492q0,1.296-1.008,3.204q0.288,0.972,0.288,1.98z M133.96236,33.224q0.36-0.864,0.36-1.926t-0.792-2.178q-1.548-2.16-5.472-2.16q-5.436,0-10.26,3.366t-7.524,8.478q-1.98,3.708-1.98,6.66q0,4.752,4.788,5.004q0.504,0.036,1.008,0.036q7.092,0,13.5-5.724q4.608-4.104,4.968-7.812q-1.872,2.052-6.48,4.896l-0.288,0.072q-0.036,0-0.036-0.036q0-0.144,0.972-0.972l2.016-1.656q2.592-2.268,3.78-3.708q-0.252-2.016-1.818-3.366t-3.582-1.962q-1.008-0.252-3.114-0.324t-2.106-0.144t0.072-0.144q1.656-0.54,3.186-0.54t3.51,0.468q3.78,0.9,5.292,3.672z M145.48848,50.756q0-1.008,4.14-7.812q-2.952,0-3.924,0.252q-1.62,0.396-2.412,1.62q-0.288,0.396-0.486,0.432t-0.198-0.162t0.144-0.342q1.368-1.836,2.7-2.52t4.212-0.684l0.864,0q2.196-3.348,6.156-9.936q1.476-2.772,1.476-4.5q0-2.772-3.384-2.808l-0.396,0q-4.608,0-8.388,2.304t-5.976,5.724t-2.196,6.156q0,3.348,3.132,3.348q2.484,0,4.248-2.196t1.764-4.176q0-1.116-0.576-1.836q-0.072-0.072-0.072-0.18q0-0.252,0.288-0.252q0.144,0,0.216,0.108q0.72,0.936,0.72,2.232q0,2.196-1.8,4.482t-3.78,2.538q-0.612,0.108-1.188,0.108q-2.304,0-3.564-1.476q-1.224-1.332-1.224-3.6q0-0.936,0.216-1.908q1.08-4.86,6.246-8.496t11.61-3.636q2.484,0,4.266,1.062t1.782,2.97t-1.332,4.032l-6.516,10.008q1.152,0.036,4.122,0.342t4.464,0.306t1.998-0.036l1.368-2.268q3.492-5.868,8.082-10.962t8.01-6.318q0.108-0.036,0.216-0.036q0.252,0,0.252,0.288q0,0.108-0.108,0.18q-2.304,1.296-6.606,6.282t-7.434,10.242l-1.404,2.376q1.656-0.216,2.376-0.828q0.144-0.108,0.252,0.126t-0.036,0.342q-1.08,0.828-3.06,1.188q-2.52,4.68-2.52,6.588q0,1.224,1.044,1.224q0.72,0,1.674-0.486t1.278-0.828t0.396-0.342t0.036,0.234t-0.144,0.378q-0.612,0.576-1.836,1.224t-1.98,0.648t-1.116-0.252q-1.152-0.756-1.152-2.628t1.908-5.472q-1.332,0.108-2.484,0.108q-0.396,0-8.46-0.252q-2.556,4.032-4.104,7.344q-0.468,0.972-1.134,0.972t-0.666-0.54z M200.3586,36.284q0,4.5-4.608,8.604q-7.092,6.336-15.876,6.336q-0.972,0-1.512-0.036q-2.88-0.144-4.626-1.89t-1.746-4.518t1.476-6.048q1.872-4.14,7.308-8.064q6.264-4.464,12.96-4.464q3.6,0,5.472,1.404t1.872,3.492q0,1.296-1.008,3.204q0.288,0.972,0.288,1.98z M199.6026,33.224q0.36-0.864,0.36-1.926t-0.792-2.178q-1.548-2.16-5.472-2.16q-5.436,0-10.26,3.366t-7.524,8.478q-1.98,3.708-1.98,6.66q0,4.752,4.788,5.004q0.504,0.036,1.008,0.036q7.092,0,13.5-5.724q4.608-4.104,4.968-7.812q-1.872,2.052-6.48,4.896l-0.288,0.072q-0.036,0-0.036-0.036q0-0.144,0.972-0.972l2.016-1.656q2.592-2.268,3.78-3.708q-0.252-2.016-1.818-3.366t-3.582-1.962q-1.008-0.252-3.114-0.324t-2.106-0.144t0.072-0.144q1.656-0.54,3.186-0.54t3.51,0.468q3.78,0.9,5.292,3.672z M230.89272,24.008q0.756,0,0.756,0.54q0,2.196-6.048,12.564q0.252,0.972,0.792,2.268l10.728-8.172q6.156-4.68,8.316-6.012q4.824-2.88,9.468-2.88q1.332,0,2.448,0.432q0.684,0.252,0.684,0.936t-0.36,0.684q-0.216,0-0.45-0.288t-1.368-0.288t-3.69,0.576q-4.032,0.9-9.144,4.032q-3.204,1.98-8.568,6.084t-7.74,5.652q1.836,3.852,4.716,7.164q4.428,5.148,7.956,5.148q1.728,0,1.728-1.332q0-0.252-0.054-0.504t0.126-0.612t0.432-0.36q0.468,0,0.612,1.116q0.036,0.18,0.036,0.36q0,1.152-1.17,1.89t-2.772,0.738t-2.682-0.504q-2.844-1.404-5.742-4.932t-4.446-7.416q-1.98,1.152-3.276,1.26q-2.412,3.132-5.94,6.084q-1.908,1.62-4.14,2.61t-4.284,0.99q-2.916,0-4.5-1.458t-1.584-4.446q0-1.476,0.576-2.736q1.836-4.068,5.544-5.616q2.052-0.9,4.086-0.9t2.718,1.332q0.252,0.468,0.252,0.99t-0.144,0.666t-0.396-0.252q-0.864-1.584-1.836-1.764q-0.648-0.072-0.936-0.072q-2.808,0-5.256,2.34q-3.168,3.06-3.168,6.624q0,3.888,4.392,4.392l0.288,0q1.584,0,4.068-1.404q4.032-2.304,8.604-7.92q-0.828-0.756-0.828-2.232t1.098-2.79t3.006-1.314q0.54,0,1.008,0.108q1.8-3.024,3.492-6.534t1.692-4.05q0-0.072-0.216-0.072t-2.502,1.134t-3.258,1.782t-2.376,2.034t-1.404,2.25q0,0.396,0.558,0.792t2.034,0.396q0.18,0.072,0.18,0.198t-0.99,0.288t-1.566,0.162q-1.296,0-1.296-1.08q0-1.26,1.548-3.024t3.384-2.772q5.364-2.88,6.804-2.88z M225.16872,40.136q-0.288-0.72-0.468-1.44q-0.72,1.044-1.44,2.052q0.36,0,0.648-0.054t1.26-0.558z M223.80072,37.04q-0.432-0.18-0.954-0.18t-1.044,0.648t-0.522,1.386t0.396,1.242q1.764-2.52,2.124-3.096z M261.93084,34.844l-0.252-0.972q0-0.288,0.288-0.288q0.108,0,0.288,0.108q0.828,0.612,0.828,1.62t-1.296,1.962t-3.276,0.954q-0.612,0-1.224-0.108q-2.484,4.572-6.048,8.424q-4.752,5.04-8.64,5.04q-5.616,0-5.616-6.624q0-5.472,2.916-8.82q2.448-2.88,5.616-2.88q0.828,0,1.692,0.288q2.124,0.828,2.124,3.51t-2.196,5.598t-4.5,2.916q-2.592,0-2.592-2.808q0-0.792,0.342-1.656t0.774-0.864q0.324,0,0.324,0.324q0,0.18-0.324,0.9t-0.324,1.278t0.594,1.044t1.242,0.486q2.124,0,3.942-2.61t1.818-5.094q0-1.908-1.368-2.52q-0.468-0.18-0.972-0.18q-2.556,0-5.112,3.528q-2.484,3.564-2.484,7.812q0,2.34,1.008,3.816q1.044,1.512,2.88,1.512q4.752,0,12.384-12.924q-3.96-1.188-3.96-4.68q0-4.644,4.716-7.416q2.988-1.728,5.796-1.728q2.196,0,3.96,0.72q2.484,0.972,2.484,2.952q0,0.432-0.198,0.828t-0.414,0.396q-0.468-0.468-1.116-0.468q-3.06,0-8.388,9.108q0.288,0.036,0.612,0.036q1.224,0,2.448-0.72t1.224-1.8z M257.95284,25.862q-2.394,1.062-3.816,3.114t-1.422,4.644t2.664,3.096q1.98-3.24,5.112-6.462t5.22-3.222q0.54,0,0.936,0.252q-0.036-1.008-1.404-1.764q-1.224-0.72-3.06-0.72t-4.23,1.062z"/><path fill="#" d=""/></svg>
